<svg width="240" height="60" viewBox="0 0 240 60" fill="none" xmlns="http://www.w3.org/2000/svg">
  <!-- Clock/Timer Icon -->
  <circle cx="30" cy="30" r="24" stroke="currentColor" stroke-width="3" fill="none"/>
  <path d="M30 12 L30 30 L42 42" stroke="currentColor" stroke-width="2.5" stroke-linecap="round"/>
  <circle cx="30" cy="30" r="2" fill="currentColor"/>
  
  <!-- TimeHatch Text -->
  <g fill="currentColor">
    <!-- Time -->
    <path d="M72 18 L84 18 L84 21 L80.5 21 L80.5 42 L77 42 L77 21 L72 21 Z"/>
    <path d="M85 24 L88 24 L88 42 L85 42 Z M85 18 L88 18 L88 21 L85 21 Z"/>
    <path d="M90 24 L93 24 L93 32 L100 24 L104 24 L98 31 L104.5 42 L100.5 42 L96 34 L93 37.5 L93 42 L90 42 Z"/>
    <path d="M106 33 C106 28.5 109 24 114.5 24 C118.5 24 121 26.5 122 29.5 L119 30.5 C118.5 28.5 117 27 114.5 27 C111 27 109 29.5 109 33 C109 36.5 111 39 114.5 39 C117 39 118.5 37.5 119 35.5 L122 36.5 C121 39.5 118.5 42 114.5 42 C109 42 106 37.5 106 33 Z"/>
    <path d="M124 33 C124 28.5 127.5 24 133 24 C138.5 24 142 28.5 142 33 C142 37.5 138.5 42 133 42 C127.5 42 124 37.5 124 33 Z M127 33 C127 36 129 39 133 39 C137 39 139 36 139 33 C139 30 137 27 133 27 C129 27 127 30 127 33 Z"/>
    
    <!-- Hatch -->
    <path d="M150 18 L153 18 L153 30 L161 18 L165 18 L165 42 L162 42 L162 30 L154 42 L150 42 Z"/>
    <path d="M167 39 L167 36 C167 31 170 27 174.5 27 C176 27 177 27.5 177.5 28 L177.5 24 L180.5 24 L180.5 42 L177.5 42 L177.5 40.5 C177 41 176 41.5 174.5 41.5 C170.5 41.5 167 38.5 167 34.5 Z M170 34.5 C170 36.5 171.5 38.5 174.5 38.5 C176.5 38.5 177.5 37 177.5 35 L177.5 31 C177 30 176 29.5 174.5 29.5 C171.5 29.5 170 31.5 170 34.5 Z"/>
    <path d="M184 27 L187 27 L187 29 C187.5 28 188.5 27 190.5 27 L191.5 27 L191.5 30 L190 30 C188 30 187 31 187 33 L187 42 L184 42 Z"/>
    <path d="M193 33 C193 28.5 196 24 201.5 24 C205.5 24 208 26.5 209 29.5 L206 30.5 C205.5 28.5 204 27 201.5 27 C198 27 196 29.5 196 33 C196 36.5 198 39 201.5 39 C204 39 205.5 37.5 206 35.5 L209 36.5 C208 39.5 205.5 42 201.5 42 C196 42 193 37.5 193 33 Z"/>
    <path d="M211 18 L214 18 L214 30 L222 18 L226 18 L226 42 L223 42 L223 30 L215 42 L211 42 Z"/>
  </g>
</svg>